# xmcd
#
# Track frame offsets:
#	150
#	17613
#	37612
#	50010
#	65438
#	77583
#	91971
#	108824
#	133137
#	149570
#
# Disc length: 2255 seconds
#
# Revision: 2
# Processed by: cddbd v1.5.2PL0 Copyright (c) Steve Scherf et al.
# Submitted via: audiograbber 1.83.01
#
DISCID=7c08cd0a
DTITLE=Relentless - Tempest of Torment
DYEAR=2005
DGENRE=Death Metal
TTITLE0=Furious
TTITLE1=At War
TTITLE2=Dreadful
TTITLE3=Scraped Off the Wall
TTITLE4=Zombified Genocide
TTITLE5=Crippled
TTITLE6=Infernal Madness
TTITLE7=Tempest of Torment
TTITLE8=Lethal Apparition
TTITLE9=Kneedeep in Gore
EXTD=
EXTT0=
EXTT1=
EXTT2=
EXTT3=
EXTT4=
EXTT5=
EXTT6=
EXTT7=
EXTT8=
EXTT9=
PLAYORDER=
